<?xml version="1.0" standalone="no"?>
<!DOCTYPE svg PUBLIC "-//W3C//DTD SVG 20010904//EN"
 "http://www.w3.org/TR/2001/REC-SVG-20010904/DTD/svg10.dtd">
<svg version="1.0" xmlns="http://www.w3.org/2000/svg"
 width="700.000000pt" height="700.000000pt" viewBox="0 0 700.000000 700.000000"
 preserveAspectRatio="xMidYMid meet">
<metadata>
Created by potrace 1.11, written by Peter Selinger 2001-2013
</metadata>
<g transform="translate(0.000000,700.000000) scale(0.100000,-0.100000)"
fill="#000000" stroke="none">
<path d="M3455 6225 c-219 -33 -512 -106 -795 -199 -288 -94 -940 -344 -970
-371 -8 -8 -60 -35 -115 -60 -183 -85 -440 -248 -544 -344 -51 -47 -54 -52
-48 -90 3 -28 1 -44 -9 -52 -8 -6 -14 -19 -14 -29 0 -32 82 -135 213 -267 129
-131 130 -132 113 -155 -112 -154 -186 -321 -241 -547 l-18 -73 -138 138
c-169 169 -174 179 -174 364 1 203 52 345 164 454 76 73 80 98 19 126 -24 11
-52 20 -63 20 -55 0 -206 -144 -254 -242 -56 -115 -76 -215 -76 -378 0 -120 4
-160 23 -230 50 -182 131 -284 289 -364 72 -35 102 -58 147 -108 31 -35 56
-68 56 -73 0 -26 70 -154 95 -173 23 -18 37 -21 74 -17 l46 6 271 -233 c248
-214 632 -531 1068 -881 163 -131 266 -197 308 -197 11 0 127 -85 257 -189
277 -219 300 -236 363 -251 39 -10 55 -9 95 4 71 23 151 37 212 37 47 0 66 7
150 54 143 80 209 109 463 200 127 46 237 90 244 97 11 11 11 21 -1 62 -8 27
-15 68 -15 92 0 30 -7 51 -23 70 -22 25 -27 26 -72 19 -30 -4 -100 -33 -180
-74 -161 -84 -559 -322 -600 -360 -41 -39 -52 -41 -141 -29 -92 12 -139 33
-181 82 -44 50 -57 96 -50 185 9 110 28 167 120 349 69 138 85 162 101 158 11
-3 32 4 47 15 16 11 77 42 136 70 136 62 151 70 303 156 157 88 660 350 788
410 54 25 255 117 447 205 193 88 388 179 435 203 47 23 123 55 170 69 46 15
89 31 95 35 18 15 65 22 65 11 0 -6 -12 -57 -27 -113 -37 -139 -37 -261 0
-367 31 -91 68 -159 112 -205 28 -30 39 -35 78 -35 40 0 77 18 77 36 0 16 -33
64 -65 94 -50 48 -71 91 -85 183 -12 72 -11 84 10 165 26 99 51 161 81 203 19
27 20 34 9 78 -7 30 -23 59 -40 76 -26 25 -28 32 -23 74 5 42 2 50 -24 77 -73
72 -837 662 -1283 990 -179 132 -419 309 -535 394 -115 85 -248 192 -296 237
-62 60 -103 90 -153 113 -105 46 -207 119 -223 158 -7 18 -13 38 -12 45 4 35
-4 60 -26 82 -28 29 -81 31 -230 10z m106 -255 c64 -13 237 -119 423 -259 284
-214 500 -386 642 -511 72 -63 182 -160 245 -216 383 -337 1040 -884 1084
-900 19 -8 10 -23 -23 -35 -14 -6 -125 -39 -247 -74 -396 -115 -760 -244 -982
-350 -275 -131 -554 -286 -932 -518 -220 -135 -246 -149 -264 -137 -49 30
-854 683 -1102 894 -225 191 -786 687 -889 786 -112 108 -300 311 -317 341 -9
18 -5 27 37 65 96 90 488 324 769 460 292 141 441 192 1185 403 253 71 266 73
371 51z m-1942 -1584 l147 -135 -48 -98 c-26 -54 -59 -143 -73 -197 -26 -102
-55 -296 -55 -367 0 -28 -4 -39 -15 -39 -15 0 -267 228 -304 276 -18 23 -21
40 -21 123 0 152 43 298 135 461 33 58 72 110 83 110 2 0 70 -60 151 -134z
m522 -462 c96 -84 318 -272 494 -420 294 -246 589 -498 708 -606 l48 -43 -24
-35 c-13 -19 -27 -53 -30 -74 -3 -21 -24 -64 -45 -95 -82 -118 -112 -206 -121
-358 l-6 -102 -65 55 c-36 31 -227 188 -425 349 -342 278 -425 348 -800 679
l-158 140 7 85 c11 151 74 354 147 475 34 56 79 108 90 104 4 -2 85 -71 180
-154z"/>
<path d="M3492 5669 c-74 -7 -116 -17 -205 -53 -62 -24 -195 -74 -297 -110
-482 -174 -653 -242 -861 -346 -180 -91 -349 -200 -363 -235 -8 -22 13 -82 41
-116 16 -19 61 -47 108 -69 62 -29 108 -62 209 -150 71 -63 170 -156 221 -207
63 -64 98 -93 115 -93 13 0 42 18 69 43 50 47 227 147 386 219 167 76 528 203
925 324 134 41 250 80 257 85 6 6 15 30 18 54 9 58 -15 98 -57 93 -25 -2 -32
3 -51 37 -16 28 -30 41 -48 43 -16 2 -126 -43 -300 -121 -491 -224 -1059 -493
-1140 -543 -31 -19 -65 -34 -75 -34 -11 0 -96 67 -190 148 -239 205 -256 222
-250 237 24 63 393 244 794 389 255 92 631 206 681 206 69 0 151 -51 272 -167
106 -103 134 -118 159 -88 29 34 -34 184 -97 232 -80 61 -136 120 -160 168
-26 50 -40 66 -58 63 -5 0 -52 -4 -103 -9z"/>
<path d="M5680 3457 c-206 -62 -376 -129 -515 -201 -55 -29 -126 -63 -159 -77
-87 -36 -104 -76 -57 -138 25 -33 52 -30 173 19 119 48 129 48 204 -3 63 -44
125 -134 220 -323 66 -130 75 -153 65 -172 -11 -21 -15 -19 -129 57 -134 90
-162 101 -251 98 l-64 -2 -49 -145 c-47 -143 -72 -190 -82 -159 -96 273 -168
402 -341 604 -88 102 -107 118 -138 113 -17 -2 -21 -9 -19 -27 3 -33 82 -151
165 -249 93 -109 167 -339 167 -519 0 -35 6 -76 14 -91 17 -32 112 -112 134
-112 26 0 98 47 124 82 44 58 102 171 128 248 29 85 47 96 88 57 15 -13 46
-36 69 -50 23 -15 53 -42 68 -61 74 -97 285 -150 317 -81 15 32 -13 182 -52
279 -54 136 -160 295 -324 486 -31 36 -56 68 -56 71 0 18 353 151 500 188
l105 27 3 35 c2 27 -3 44 -23 68 -37 44 -74 41 -285 -22z"/>
<path d="M6011 3030 c-140 -49 -259 -94 -264 -99 -21 -21 -11 -73 18 -99 38
-32 56 -29 335 62 124 41 252 79 285 86 77 16 88 25 81 68 -9 61 -28 72 -120
72 -76 -1 -98 -7 -335 -90z"/>
<path d="M4300 2892 c-164 -77 -289 -148 -437 -251 -111 -77 -142 -113 -150
-170 -4 -32 -1 -41 22 -59 15 -12 33 -18 43 -15 9 4 85 45 167 92 83 46 249
131 370 187 180 85 223 109 239 134 36 59 -2 133 -74 144 -29 4 -61 -7 -180
-62z"/>
</g>
</svg>
